<?xml version="1.0" encoding="UTF-8"?>
<svg width="20" height="20" viewBox="0 0 20 20" fill="none" xmlns="http://www.w3.org/2000/svg">
    <title>
        display
    </title>
    <g clip-path="url(#clip0_1301_6)">
        <path
            d="M0.00200708 2.27499V15.22H8.40701C8.94201 16.844 7.43201 17.006 6.50501 17.725C6.50501 17.725 8.79801 17.701 9.94401 17.701C11.088 17.701 13.376 17.725 13.376 17.725C12.471 17.037 11.021 16.857 11.474 15.22H20.001V2.27499H0.00100708H0.00200708ZM6.81201 4.11499H7.60901L10.922 12.581H9.87901L8.83601 9.94299H5.46201L4.41901 12.581H3.43701L6.81201 4.11499ZM7.18001 5.21899C7.09601 5.58799 6.96901 6.00399 6.81201 6.44599L5.83001 9.02299H8.52901L7.54701 6.44599C7.41901 6.11599 7.31401 5.69899 7.18001 5.21899ZM14.297 6.20099C15.05 6.20099 15.592 6.35799 15.953 6.69199C16.318 7.02599 16.505 7.54999 16.505 8.28699V12.581H15.83L15.646 11.722H15.584C15.269 12.118 14.979 12.377 14.664 12.52C14.353 12.658 13.906 12.704 13.437 12.704C12.811 12.704 12.322 12.536 11.965 12.213C11.612 11.89 11.474 11.459 11.474 10.863C11.474 9.58799 12.502 8.89999 14.542 8.83799H15.585V8.40899C15.585 7.91399 15.494 7.53899 15.278 7.30499C15.067 7.06699 14.704 6.99799 14.235 6.99799C13.709 6.99799 13.12 7.10499 12.456 7.42699L12.149 6.75199C12.4784 6.56806 12.8285 6.42405 13.192 6.32299C13.5532 6.23481 13.9243 6.19347 14.296 6.19999L14.297 6.20099ZM14.604 9.51399C13.843 9.54099 13.286 9.67099 12.948 9.88199C12.614 10.089 12.457 10.422 12.457 10.864C12.457 11.21 12.557 11.481 12.764 11.662C12.975 11.843 13.308 11.907 13.684 11.907C14.279 11.907 14.696 11.743 15.034 11.416C15.376 11.09 15.586 10.654 15.586 10.066V9.51399H14.604Z"
            fill="#C6CAD1" />
    </g>
    <defs>
        <clipPath id="clip0_1301_6">
            <rect width="20" height="20" fill="white" />
        </clipPath>
    </defs>
</svg>