<?xml version="1.0" encoding="UTF-8"?>
<svg width="20" height="20" viewBox="0 0 20 20" fill="none" xmlns="http://www.w3.org/2000/svg">
    <title>
        input
    </title>
    <g clip-path="url(#clip0_1301_8)">
        <path
            d="M8.99999 1.281C8.87599 1.54 8.81499 1.88 8.49999 1.969C7.94999 2.05 7.36699 1.987 6.81199 1.969C5.94599 1.937 5.07899 1.821 4.21799 1.969C3.62999 2.126 3.26499 2.696 3.02999 3.219C2.85199 3.635 2.75899 4.055 2.68599 4.5H-0.00201416V16H19.998V4.5H3.65399C3.76299 3.98 3.85699 3.443 4.21699 3.031C4.43899 2.8 4.80399 2.861 5.09199 2.843C6.30399 2.846 7.50699 3.022 8.71699 2.906C9.17999 2.848 9.52899 2.451 9.68599 2.031L9.87399 1.593L8.99899 1.28L8.99999 1.281ZM1.87499 7.125H3.43799C3.53199 7.125 3.62599 7.218 3.62599 7.313V8.844C3.62292 8.89285 3.60212 8.93891 3.56751 8.97352C3.5329 9.00814 3.48684 9.02893 3.43799 9.032H1.87499C1.78099 9.032 1.71899 8.939 1.71899 8.844V7.313C1.71899 7.219 1.78099 7.125 1.87499 7.125ZM4.71899 7.125H6.28199C6.37599 7.125 6.43799 7.218 6.43799 7.313V8.844C6.43799 8.938 6.37599 9.032 6.28199 9.032H4.71899C4.62499 9.032 4.56299 8.939 4.56299 8.844V7.313C4.56299 7.219 4.62499 7.125 4.71899 7.125ZM7.56299 7.125H9.12599C9.21999 7.125 9.28199 7.218 9.28199 7.313V8.844C9.28199 8.938 9.21999 9.032 9.12599 9.032H7.56299C7.51413 9.02893 7.46808 9.00814 7.43346 8.97352C7.39885 8.93891 7.37806 8.89285 7.37499 8.844V7.313C7.37499 7.219 7.46799 7.125 7.56299 7.125ZM10.376 7.125H11.939C12.033 7.125 12.127 7.218 12.127 7.313V8.844C12.1239 8.89285 12.1031 8.93891 12.0685 8.97352C12.0339 9.00814 11.9878 9.02893 11.939 9.032H10.376C10.282 9.032 10.22 8.939 10.22 8.844V7.313C10.22 7.219 10.282 7.125 10.376 7.125ZM13.22 7.125H14.783C14.877 7.125 14.939 7.218 14.939 7.313V8.844C14.939 8.938 14.877 9.032 14.783 9.032H13.22C13.126 9.032 13.064 8.939 13.064 8.844V7.313C13.064 7.219 13.126 7.125 13.22 7.125ZM16.064 7.125H17.595C17.689 7.125 17.783 7.218 17.783 7.313V8.844C17.7799 8.89285 17.7591 8.93891 17.7245 8.97352C17.6899 9.00814 17.6438 9.02893 17.595 9.032H16.064C16.0151 9.02893 15.9691 9.00814 15.9345 8.97352C15.8998 8.93891 15.8791 8.89285 15.876 8.844V7.313C15.876 7.219 15.969 7.125 16.064 7.125ZM3.21999 10.125H4.78299C4.87699 10.125 4.93899 10.218 4.93899 10.313V11.876C4.93899 11.97 4.87699 12.032 4.78299 12.032H3.21999C3.12599 12.032 3.06399 11.97 3.06399 11.876V10.313C3.06399 10.219 3.12599 10.125 3.21999 10.125ZM6.12599 10.125H7.68899C7.78299 10.125 7.87699 10.218 7.87699 10.313V11.876C7.87699 11.97 7.78399 12.032 7.68899 12.032H6.12599C6.03199 12.032 5.96999 11.97 5.96999 11.876V10.313C5.96999 10.219 6.03199 10.125 6.12599 10.125ZM9.06399 10.125H10.595C10.689 10.125 10.783 10.218 10.783 10.313V11.876C10.783 11.97 10.69 12.032 10.595 12.032H9.06399C8.96999 12.032 8.87599 11.97 8.87599 11.876V10.313C8.87599 10.219 8.96899 10.125 9.06399 10.125ZM11.97 10.125H13.533C13.627 10.125 13.689 10.218 13.689 10.313V11.876C13.689 11.97 13.627 12.032 13.533 12.032H11.97C11.876 12.032 11.782 11.97 11.782 11.876V10.313C11.782 10.219 11.875 10.125 11.97 10.125ZM14.876 10.125H16.439C16.533 10.125 16.595 10.218 16.595 10.313V11.876C16.595 11.97 16.533 12.032 16.439 12.032H14.876C14.782 12.032 14.72 11.97 14.72 11.876V10.313C14.72 10.219 14.782 10.125 14.876 10.125ZM4.00099 13.688H16.001C16.089 13.688 16.157 13.756 16.157 13.844V14.688C16.1573 14.7086 16.1534 14.729 16.1457 14.748C16.1379 14.7671 16.1264 14.7844 16.1119 14.7989C16.0974 14.8134 16.0801 14.8249 16.061 14.8327C16.042 14.8404 16.0215 14.8443 16.001 14.844H4.00099C3.98042 14.8443 3.96002 14.8404 3.94097 14.8327C3.92192 14.8249 3.90462 14.8134 3.89008 14.7989C3.87554 14.7844 3.86406 14.7671 3.85631 14.748C3.84857 14.729 3.84472 14.7086 3.84499 14.688V13.844C3.84499 13.756 3.91299 13.688 4.00099 13.688Z"
            fill="#C6CAD1" />
    </g>
    <defs>
        <clipPath id="clip0_1301_8">
            <rect width="20" height="20" fill="white" />
        </clipPath>
    </defs>
</svg>